<mxfile host="app.diagrams.net" modified="2024-04-29T15:39:41.812Z" agent="Mozilla/5.0 (Windows NT 10.0; Win64; x64) AppleWebKit/537.36 (KHTML, like Gecko) Chrome/124.0.0.0 Safari/537.36" etag="bewtQsGU8fS9FQSzRt_z" version="24.2.8" type="github">
  <diagram name="Page-1" id="80d4a630-b321-0f5e-ff81-c5a36ef4752d">
    <mxGraphModel dx="1434" dy="772" grid="1" gridSize="10" guides="1" tooltips="1" connect="1" arrows="1" fold="1" page="1" pageScale="1" pageWidth="1100" pageHeight="850" background="none" math="0" shadow="0">
      <root>
        <mxCell id="0" />
        <mxCell id="1" parent="0" />
        <mxCell id="5c82df7aa0dc6260-13" value="ISP Network" style="ellipse;whiteSpace=wrap;html=1;rounded=1;shadow=0;comic=0;labelBackgroundColor=none;strokeColor=#6881B3;strokeWidth=2;fillColor=#CCFFCC;fontFamily=Helvetica;fontSize=22;fontColor=#000000;verticalAlign=middle;gradientColor=none;gradientDirection=north;" parent="1" vertex="1">
          <mxGeometry x="976" y="71" width="720" height="270" as="geometry" />
        </mxCell>
        <mxCell id="5c82df7aa0dc6260-63" style="edgeStyle=none;rounded=0;html=1;labelBackgroundColor=none;endArrow=none;strokeColor=#6881B3;strokeWidth=2;fontFamily=Verdana;fontSize=28;fontColor=#0066CC;flowAnimation=1;" parent="1" source="7CNJ_dmtVab91Lmumk6U-12" target="7CNJ_dmtVab91Lmumk6U-2" edge="1">
          <mxGeometry relative="1" as="geometry">
            <mxPoint x="969" y="604.6874154262516" as="sourcePoint" />
            <mxPoint x="1130" y="470" as="targetPoint" />
          </mxGeometry>
        </mxCell>
        <mxCell id="5c82df7aa0dc6260-19" style="edgeStyle=none;rounded=0;html=1;labelBackgroundColor=none;endArrow=none;strokeColor=#6881B3;strokeWidth=2;fontFamily=Verdana;fontSize=28;fontColor=#0066CC;" parent="1" edge="1">
          <mxGeometry relative="1" as="geometry">
            <mxPoint x="1241.9999999999995" y="91" as="sourcePoint" />
            <mxPoint x="1439" y="91" as="targetPoint" />
          </mxGeometry>
        </mxCell>
        <mxCell id="5c82df7aa0dc6260-23" style="edgeStyle=none;rounded=0;html=1;labelBackgroundColor=none;endArrow=none;strokeColor=#6881B3;strokeWidth=2;fontFamily=Verdana;fontSize=28;fontColor=#0066CC;" parent="1" target="5c82df7aa0dc6260-22" edge="1">
          <mxGeometry relative="1" as="geometry">
            <mxPoint x="1186.9999999999995" y="108.24738675958201" as="sourcePoint" />
          </mxGeometry>
        </mxCell>
        <mxCell id="5c82df7aa0dc6260-5" value="" style="fontColor=#0066CC;verticalAlign=top;verticalLabelPosition=bottom;labelPosition=center;align=center;html=1;fillColor=#FFFFFF;strokeColor=#000000;gradientColor=none;gradientDirection=north;strokeWidth=2;shape=mxgraph.networks.radio_tower;rounded=1;shadow=0;comic=0;labelBackgroundColor=none;" parent="1" vertex="1">
          <mxGeometry x="1188" y="33" width="55" height="100" as="geometry" />
        </mxCell>
        <mxCell id="5c82df7aa0dc6260-18" style="edgeStyle=none;rounded=0;html=1;labelBackgroundColor=none;endArrow=none;strokeColor=#6881B3;strokeWidth=2;fontFamily=Verdana;fontSize=28;fontColor=#0066CC;" parent="1" edge="1">
          <mxGeometry relative="1" as="geometry">
            <mxPoint x="1519.178571428571" y="141" as="targetPoint" />
            <mxPoint x="1555" y="191.9137055837565" as="sourcePoint" />
          </mxGeometry>
        </mxCell>
        <mxCell id="5c82df7aa0dc6260-16" style="edgeStyle=none;rounded=0;html=1;labelBackgroundColor=none;endArrow=none;strokeColor=#6881B3;strokeWidth=2;fontFamily=Verdana;fontSize=28;fontColor=#0066CC;entryX=0.189;entryY=0.801;entryPerimeter=0;" parent="1" edge="1">
          <mxGeometry relative="1" as="geometry">
            <mxPoint x="1565.395" y="261.0999999999999" as="targetPoint" />
            <mxPoint x="1511.6687394007913" y="388" as="sourcePoint" />
          </mxGeometry>
        </mxCell>
        <mxCell id="5c82df7aa0dc6260-25" style="edgeStyle=none;rounded=0;html=1;labelBackgroundColor=none;endArrow=none;strokeColor=#6881B3;strokeWidth=2;fontFamily=Verdana;fontSize=28;fontColor=#0066CC;flowAnimation=1;" parent="1" source="7CNJ_dmtVab91Lmumk6U-2" target="7CNJ_dmtVab91Lmumk6U-6" edge="1">
          <mxGeometry relative="1" as="geometry">
            <mxPoint x="1518" y="468.6976744186045" as="sourcePoint" />
            <mxPoint x="1530" y="540" as="targetPoint" />
            <Array as="points" />
          </mxGeometry>
        </mxCell>
        <mxCell id="5c82df7aa0dc6260-17" value="" style="fontColor=#0066CC;verticalAlign=top;verticalLabelPosition=bottom;labelPosition=center;align=center;html=1;fillColor=#CCCCCC;strokeColor=#000000;gradientColor=none;gradientDirection=north;strokeWidth=2;shape=mxgraph.networks.business_center;rounded=1;shadow=0;comic=0;labelBackgroundColor=none;" parent="1" vertex="1">
          <mxGeometry x="1431" y="54" width="90" height="100" as="geometry" />
        </mxCell>
        <mxCell id="5c82df7aa0dc6260-20" value="" style="fontColor=#0066CC;verticalAlign=top;verticalLabelPosition=bottom;labelPosition=center;align=center;html=1;fillColor=#CCCCCC;strokeColor=#000000;gradientColor=none;gradientDirection=north;strokeWidth=2;shape=mxgraph.networks.community;rounded=1;shadow=0;comic=0;" parent="1" vertex="1">
          <mxGeometry x="1276" y="231" width="95" height="100" as="geometry" />
        </mxCell>
        <mxCell id="5c82df7aa0dc6260-24" style="edgeStyle=none;rounded=0;html=1;labelBackgroundColor=none;endArrow=none;strokeColor=#6881B3;strokeWidth=2;fontFamily=Verdana;fontSize=28;fontColor=#0066CC;" parent="1" source="5c82df7aa0dc6260-22" target="5c82df7aa0dc6260-20" edge="1">
          <mxGeometry relative="1" as="geometry" />
        </mxCell>
        <mxCell id="5c82df7aa0dc6260-22" value="" style="fontColor=#0066CC;verticalAlign=top;verticalLabelPosition=bottom;labelPosition=center;align=center;html=1;fillColor=#CCCCCC;strokeColor=#000000;gradientColor=none;gradientDirection=north;strokeWidth=2;shape=mxgraph.networks.business_center;rounded=1;shadow=0;comic=0;labelBackgroundColor=none;" parent="1" vertex="1">
          <mxGeometry x="1026" y="131" width="90" height="100" as="geometry" />
        </mxCell>
        <mxCell id="5c82df7aa0dc6260-44" value="" style="ellipse;shape=cloud;whiteSpace=wrap;html=1;rounded=1;shadow=0;comic=0;strokeColor=none;strokeWidth=2;fillColor=#3399FF;fontColor=#0066CC;" parent="1" vertex="1">
          <mxGeometry x="1261" y="149" width="110" height="35" as="geometry" />
        </mxCell>
        <mxCell id="5c82df7aa0dc6260-45" value="" style="shape=image;html=1;verticalAlign=top;verticalLabelPosition=bottom;labelBackgroundColor=#ffffff;imageAspect=0;aspect=fixed;image=https://cdn0.iconfinder.com/data/icons/fatcow/32x32/tree.png;rounded=1;shadow=0;comic=0;strokeColor=#6881B3;strokeWidth=2;fillColor=#CCFFCC;fontColor=#0066CC;" parent="1" vertex="1">
          <mxGeometry x="1539" y="81" width="32" height="32" as="geometry" />
        </mxCell>
        <mxCell id="5c82df7aa0dc6260-46" value="" style="shape=image;html=1;verticalAlign=top;verticalLabelPosition=bottom;labelBackgroundColor=#ffffff;imageAspect=0;aspect=fixed;image=https://cdn0.iconfinder.com/data/icons/fatcow/32x32/tree.png;rounded=1;shadow=0;comic=0;strokeColor=#6881B3;strokeWidth=2;fillColor=#CCFFCC;fontColor=#0066CC;" parent="1" vertex="1">
          <mxGeometry x="1571" y="91" width="32" height="32" as="geometry" />
        </mxCell>
        <mxCell id="5c82df7aa0dc6260-47" value="" style="shape=image;html=1;verticalAlign=top;verticalLabelPosition=bottom;labelBackgroundColor=#ffffff;imageAspect=0;aspect=fixed;image=https://cdn0.iconfinder.com/data/icons/fatcow/32x32/tree.png;rounded=1;shadow=0;comic=0;strokeColor=#6881B3;strokeWidth=2;fillColor=#CCFFCC;fontColor=#0066CC;" parent="1" vertex="1">
          <mxGeometry x="1559" y="101" width="32" height="32" as="geometry" />
        </mxCell>
        <mxCell id="5c82df7aa0dc6260-48" value="" style="shape=image;html=1;verticalAlign=top;verticalLabelPosition=bottom;labelBackgroundColor=#ffffff;imageAspect=0;aspect=fixed;image=https://cdn0.iconfinder.com/data/icons/fatcow/32x32/tree.png;rounded=1;shadow=0;comic=0;strokeColor=#6881B3;strokeWidth=2;fillColor=#CCFFCC;fontColor=#0066CC;" parent="1" vertex="1">
          <mxGeometry x="1593" y="104" width="32" height="32" as="geometry" />
        </mxCell>
        <mxCell id="5c82df7aa0dc6260-49" value="" style="shape=image;html=1;verticalAlign=top;verticalLabelPosition=bottom;labelBackgroundColor=#ffffff;imageAspect=0;aspect=fixed;image=https://cdn0.iconfinder.com/data/icons/fatcow/32x32/tree.png;rounded=1;shadow=0;comic=0;strokeColor=#6881B3;strokeWidth=2;fillColor=#CCFFCC;fontColor=#0066CC;" parent="1" vertex="1">
          <mxGeometry x="1407" y="241" width="32" height="32" as="geometry" />
        </mxCell>
        <mxCell id="5c82df7aa0dc6260-50" value="" style="shape=image;html=1;verticalAlign=top;verticalLabelPosition=bottom;labelBackgroundColor=#ffffff;imageAspect=0;aspect=fixed;image=https://cdn0.iconfinder.com/data/icons/fatcow/32x32/tree.png;rounded=1;shadow=0;comic=0;strokeColor=#6881B3;strokeWidth=2;fillColor=#CCFFCC;fontColor=#0066CC;" parent="1" vertex="1">
          <mxGeometry x="1431" y="249" width="32" height="32" as="geometry" />
        </mxCell>
        <mxCell id="5c82df7aa0dc6260-51" value="" style="shape=image;html=1;verticalAlign=top;verticalLabelPosition=bottom;labelBackgroundColor=#ffffff;imageAspect=0;aspect=fixed;image=https://cdn0.iconfinder.com/data/icons/fatcow/32x32/tree.png;rounded=1;shadow=0;comic=0;strokeColor=#6881B3;strokeWidth=2;fillColor=#CCFFCC;fontColor=#0066CC;" parent="1" vertex="1">
          <mxGeometry x="1415" y="265" width="32" height="32" as="geometry" />
        </mxCell>
        <mxCell id="5c82df7aa0dc6260-52" value="" style="shape=image;html=1;verticalAlign=top;verticalLabelPosition=bottom;labelBackgroundColor=#ffffff;imageAspect=0;aspect=fixed;image=https://cdn0.iconfinder.com/data/icons/fatcow/32x32/tree.png;rounded=1;shadow=0;comic=0;strokeColor=#6881B3;strokeWidth=2;fillColor=#CCFFCC;fontColor=#0066CC;" parent="1" vertex="1">
          <mxGeometry x="1323" y="124" width="32" height="32" as="geometry" />
        </mxCell>
        <mxCell id="5c82df7aa0dc6260-53" value="" style="shape=image;html=1;verticalAlign=top;verticalLabelPosition=bottom;labelBackgroundColor=#ffffff;imageAspect=0;aspect=fixed;image=https://cdn0.iconfinder.com/data/icons/fatcow/32x32/tree.png;rounded=1;shadow=0;comic=0;strokeColor=#6881B3;strokeWidth=2;fillColor=#CCFFCC;fontColor=#0066CC;" parent="1" vertex="1">
          <mxGeometry x="1284" y="120" width="32" height="32" as="geometry" />
        </mxCell>
        <mxCell id="5c82df7aa0dc6260-54" value="" style="shape=image;html=1;verticalAlign=top;verticalLabelPosition=bottom;labelBackgroundColor=#ffffff;imageAspect=0;aspect=fixed;image=https://cdn0.iconfinder.com/data/icons/fatcow/32x32/tree.png;rounded=1;shadow=0;comic=0;strokeColor=#6881B3;strokeWidth=2;fillColor=#CCFFCC;fontColor=#0066CC;" parent="1" vertex="1">
          <mxGeometry x="1257" y="156" width="32" height="32" as="geometry" />
        </mxCell>
        <mxCell id="5c82df7aa0dc6260-55" value="" style="shape=image;html=1;verticalAlign=top;verticalLabelPosition=bottom;labelBackgroundColor=#ffffff;imageAspect=0;aspect=fixed;image=https://cdn0.iconfinder.com/data/icons/fatcow/32x32/tree.png;rounded=1;shadow=0;comic=0;strokeColor=#6881B3;strokeWidth=2;fillColor=#CCFFCC;fontColor=#0066CC;" parent="1" vertex="1">
          <mxGeometry x="1071" y="120" width="32" height="32" as="geometry" />
        </mxCell>
        <mxCell id="5c82df7aa0dc6260-56" value="" style="shape=image;html=1;verticalAlign=top;verticalLabelPosition=bottom;labelBackgroundColor=#ffffff;imageAspect=0;aspect=fixed;image=https://cdn0.iconfinder.com/data/icons/fatcow/32x32/tree.png;rounded=1;shadow=0;comic=0;strokeColor=#6881B3;strokeWidth=2;fillColor=#CCFFCC;fontColor=#0066CC;" parent="1" vertex="1">
          <mxGeometry x="1087" y="125" width="32" height="32" as="geometry" />
        </mxCell>
        <mxCell id="5c82df7aa0dc6260-57" value="" style="shape=image;html=1;verticalAlign=top;verticalLabelPosition=bottom;labelBackgroundColor=#ffffff;imageAspect=0;aspect=fixed;image=https://cdn0.iconfinder.com/data/icons/fatcow/32x32/tree.png;rounded=1;shadow=0;comic=0;strokeColor=#6881B3;strokeWidth=2;fillColor=#CCFFCC;fontColor=#0066CC;" parent="1" vertex="1">
          <mxGeometry x="1103" y="233" width="32" height="32" as="geometry" />
        </mxCell>
        <mxCell id="5c82df7aa0dc6260-21" style="edgeStyle=none;rounded=0;html=1;labelBackgroundColor=none;endArrow=none;strokeColor=#6881B3;strokeWidth=2;fontFamily=Verdana;fontSize=28;fontColor=#0066CC;" parent="1" target="5c82df7aa0dc6260-20" edge="1">
          <mxGeometry relative="1" as="geometry">
            <mxPoint x="1555" y="236.30888030888025" as="sourcePoint" />
          </mxGeometry>
        </mxCell>
        <mxCell id="7CNJ_dmtVab91Lmumk6U-2" value="" style="sketch=0;outlineConnect=0;fontColor=#232F3E;gradientColor=none;fillColor=#01A88D;strokeColor=none;dashed=0;verticalLabelPosition=bottom;verticalAlign=top;align=center;html=1;fontSize=12;fontStyle=0;aspect=fixed;pointerEvents=1;shape=mxgraph.aws4.sagemaker_model;" vertex="1" parent="1">
          <mxGeometry x="1257" y="410" width="108" height="108" as="geometry" />
        </mxCell>
        <mxCell id="7CNJ_dmtVab91Lmumk6U-5" value="" style="group" vertex="1" connectable="0" parent="1">
          <mxGeometry x="1460" y="560" width="580" height="279" as="geometry" />
        </mxCell>
        <mxCell id="5c82df7aa0dc6260-15" value="Process Cell" style="ellipse;whiteSpace=wrap;html=1;rounded=1;shadow=0;comic=0;labelBackgroundColor=none;strokeColor=#6881B3;strokeWidth=2;fillColor=#CCFFCC;fontFamily=Helvetica;fontSize=22;fontColor=#000000;verticalAlign=middle;gradientColor=none;gradientDirection=north;spacingBottom=36;" parent="7CNJ_dmtVab91Lmumk6U-5" vertex="1">
          <mxGeometry y="29" width="580" height="250" as="geometry" />
        </mxCell>
        <mxCell id="5c82df7aa0dc6260-12" value="" style="fontColor=#0066CC;verticalAlign=top;verticalLabelPosition=bottom;labelPosition=center;align=center;html=1;fillColor=#CCCCCC;strokeColor=#000000;gradientColor=none;gradientDirection=north;strokeWidth=2;shape=mxgraph.networks.community;rounded=1;shadow=0;comic=0;labelBackgroundColor=none;" parent="7CNJ_dmtVab91Lmumk6U-5" vertex="1">
          <mxGeometry x="430" width="95" height="100" as="geometry" />
        </mxCell>
        <mxCell id="7CNJ_dmtVab91Lmumk6U-3" value="" style="shape=mxgraph.pid.vessels.mixing_reactor;html=1;pointerEvents=1;align=center;verticalLabelPosition=bottom;verticalAlign=top;dashed=0;" vertex="1" parent="7CNJ_dmtVab91Lmumk6U-5">
          <mxGeometry x="61" y="128" width="50" height="96" as="geometry" />
        </mxCell>
        <mxCell id="7CNJ_dmtVab91Lmumk6U-4" value="BIO" style="html=1;dashed=0;outlineConnect=0;align=center;shape=mxgraph.pid.filters.liquid_filter_(biological);" vertex="1" parent="7CNJ_dmtVab91Lmumk6U-5">
          <mxGeometry x="161" y="146" width="50" height="78" as="geometry" />
        </mxCell>
        <mxCell id="7CNJ_dmtVab91Lmumk6U-6" value="" style="sketch=0;outlineConnect=0;fontColor=#232F3E;gradientColor=none;fillColor=#232F3D;strokeColor=none;dashed=0;verticalLabelPosition=bottom;verticalAlign=top;align=center;html=1;fontSize=12;fontStyle=0;aspect=fixed;pointerEvents=1;shape=mxgraph.aws4.gear;" vertex="1" parent="7CNJ_dmtVab91Lmumk6U-5">
          <mxGeometry x="100" y="-2" width="102" height="102" as="geometry" />
        </mxCell>
        <mxCell id="7CNJ_dmtVab91Lmumk6U-7" value="" style="group" vertex="1" connectable="0" parent="1">
          <mxGeometry x="560" y="640" width="690" height="340" as="geometry" />
        </mxCell>
        <mxCell id="7CNJ_dmtVab91Lmumk6U-8" value="Process Cell" style="ellipse;whiteSpace=wrap;html=1;rounded=1;shadow=0;comic=0;labelBackgroundColor=none;strokeColor=#6881B3;strokeWidth=2;fillColor=#CCFFCC;fontFamily=Helvetica;fontSize=22;fontColor=#000000;verticalAlign=middle;gradientColor=none;gradientDirection=north;spacingBottom=36;" vertex="1" parent="7CNJ_dmtVab91Lmumk6U-7">
          <mxGeometry y="29" width="690" height="311" as="geometry" />
        </mxCell>
        <mxCell id="7CNJ_dmtVab91Lmumk6U-9" value="" style="fontColor=#0066CC;verticalAlign=top;verticalLabelPosition=bottom;labelPosition=center;align=center;html=1;fillColor=#CCCCCC;strokeColor=#000000;gradientColor=none;gradientDirection=north;strokeWidth=2;shape=mxgraph.networks.community;rounded=1;shadow=0;comic=0;labelBackgroundColor=none;" vertex="1" parent="7CNJ_dmtVab91Lmumk6U-7">
          <mxGeometry x="430" width="95" height="100" as="geometry" />
        </mxCell>
        <mxCell id="7CNJ_dmtVab91Lmumk6U-10" value="" style="shape=mxgraph.pid.vessels.mixing_reactor;html=1;pointerEvents=1;align=center;verticalLabelPosition=bottom;verticalAlign=top;dashed=0;" vertex="1" parent="7CNJ_dmtVab91Lmumk6U-7">
          <mxGeometry x="140" y="190" width="50" height="96" as="geometry" />
        </mxCell>
        <mxCell id="7CNJ_dmtVab91Lmumk6U-11" value="BIO" style="html=1;dashed=0;outlineConnect=0;align=center;shape=mxgraph.pid.filters.liquid_filter_(biological);" vertex="1" parent="7CNJ_dmtVab91Lmumk6U-7">
          <mxGeometry x="220" y="210" width="50" height="78" as="geometry" />
        </mxCell>
        <mxCell id="7CNJ_dmtVab91Lmumk6U-12" value="" style="sketch=0;outlineConnect=0;fontColor=#232F3E;gradientColor=none;fillColor=#232F3D;strokeColor=none;dashed=0;verticalLabelPosition=bottom;verticalAlign=top;align=center;html=1;fontSize=12;fontStyle=0;aspect=fixed;pointerEvents=1;shape=mxgraph.aws4.gear;" vertex="1" parent="7CNJ_dmtVab91Lmumk6U-7">
          <mxGeometry x="100" y="-2" width="102" height="102" as="geometry" />
        </mxCell>
        <mxCell id="7CNJ_dmtVab91Lmumk6U-15" value="DeltaV" style="sketch=0;pointerEvents=1;shadow=0;dashed=0;html=1;strokeColor=none;labelPosition=center;verticalLabelPosition=bottom;verticalAlign=top;align=center;fillColor=#515151;shape=mxgraph.mscae.enterprise.database_server" vertex="1" parent="7CNJ_dmtVab91Lmumk6U-7">
          <mxGeometry x="226" y="100" width="38" height="50" as="geometry" />
        </mxCell>
      </root>
    </mxGraphModel>
  </diagram>
</mxfile>
